Coordinates
version=1
nRows=6
nColumns=36
inDegrees=yes

Units are S.I. units (second, meters, Newtons, ...)
If the header above contains a line with 'inDegrees', this indicates whether rotational values are in degrees (yes) or radians (no).

endheader
time	pelvis_tilt	pelvis_list	pelvis_rotation	pelvis_tx	pelvis_ty	pelvis_tz	hip_flexion_r	hip_adduction_r	hip_rotation_r	knee_angle_r	knee_angle_r_beta	ankle_angle_r	subtalar_angle_r	mtp_angle_r	hip_flexion_l	hip_adduction_l	hip_rotation_l	knee_angle_l	knee_angle_l_beta	ankle_angle_l	subtalar_angle_l	mtp_angle_l	lumbar_extension	lumbar_bending	lumbar_rotation	arm_flex_r	arm_add_r	arm_rot_r	elbow_flex_r	pro_sup_r	arm_flex_l	arm_add_l	arm_rot_l	elbow_flex_l	pro_sup_l
      1.75166670	      1.06416718	      1.74552083	     -0.84211351	      0.47963256	      0.94506689	     -0.08663525	     -2.21055606	     -4.36695684	      3.51441728	      0.97560095	      0.01702745	      1.38093212	     -9.65036517	     -7.49999987	     -3.92878417	     -0.89297926	     -3.04140683	      0.68355541	      0.01193029	      4.54717809	      0.40402389	     -7.49999987	    -10.57187472	     -1.48562011	     -1.64018743	      4.13015845	     -1.82013407	    -16.22278566	     21.01993718	     86.94564796	      9.22384345	     -4.73545966	     -5.37137310	     23.50455281	     81.83006889
      1.75333330	      1.06919939	      1.81234621	     -0.59638335	      0.48044177	      0.94380911	     -0.08566538	     -2.36686671	     -4.42068707	      3.29371497	      0.91786310	      0.01601973	      1.35663669	     -9.91306645	     -7.49999987	     -3.98745707	     -0.79442642	     -3.01921209	      0.66485153	      0.01160385	      4.52126862	      0.50258976	     -7.49999987	    -10.63200614	     -1.51924577	     -1.83440945	      4.54858306	     -1.69092597	    -13.83682342	     21.13102342	     88.80427656	      9.73371959	     -4.49208557	     -3.44363177	     23.11533739	     82.90886610
      1.75500000	      1.03402766	      1.87389415	     -0.48666232	      0.48321411	      0.94309821	     -0.09238586	     -2.49053638	     -4.58451278	      3.23406498	      0.88451766	      0.01543775	      1.36132432	     -9.93153681	     -7.49999987	     -4.04018791	     -0.65735400	     -3.03537948	      0.61812497	      0.01078832	      4.55959470	      0.49917044	     -7.49999987	    -10.38020294	     -1.43220171	     -1.87767882	      4.88803702	     -1.41059436	    -13.75432834	     21.26522883	     88.82373135	      9.93652796	     -3.87760259	     -3.33700115	     23.20612168	     82.92864071
      1.75666670	      0.99767752	      1.92803205	     -0.42648680	      0.48423921	      0.94030525	     -0.08981343	     -2.59430663	     -4.67021169	      3.17154670	      0.80163293	      0.01399113	      1.42503160	     -9.97277058	     -7.49999987	     -4.10010299	     -0.56872553	     -2.98062415	      0.57832714	      0.01009371	      4.65320903	      0.49125933	     -7.49999987	    -10.14980676	     -1.37939735	     -1.89178330	      5.26476123	     -1.08694321	    -13.63840508	     21.42173024	     88.85440083	     10.12547349	     -3.27993417	     -3.21720470	     23.26638252	     82.95281440
      1.75833330	      1.04767817	      1.95630872	     -0.20885988	      0.48498155	      0.93801693	     -0.08947301	     -2.84733630	     -4.71072463	      2.97156734	      0.69774401	      0.01217793	      1.56933762	    -10.06663836	     -7.49999987	     -4.23219690	     -0.52013666	     -2.13774306	      0.55145516	      0.00962471	      4.69966360	     -0.25720825	     -7.49999987	    -10.07167207	     -1.27456301	     -1.98516008	      5.60463960	     -1.68454930	     -5.78909425	     21.41507305	     80.36196861	     10.86303879	     -3.26849634	      2.74563468	     22.10737921	     74.66370437
      1.76000000	      0.97467855	      1.99804562	     -0.19962686	      0.48362497	      0.93737029	     -0.08784014	     -2.83838256	     -4.69680656	      2.91397910	      0.65084815	      0.01135944	      1.73482123	    -10.09465593	     -7.49999987	     -4.19013470	     -0.49799287	     -2.00403410	      0.52920275	      0.00923633	      4.89344400	     -0.19061700	     -7.49999987	     -9.93821409	     -1.31251329	     -1.91456094	      6.07789391	     -1.21970144	     -5.69455517	     21.55638840	     80.49336533	     11.16872666	     -2.82078876	      2.81688363	     22.17708401	     74.75872213
